<?xml version="1.0" encoding="utf-8"?>
<!-- Generator: Adobe Illustrator 18.0.0, SVG Export Plug-In . SVG Version: 6.00 Build 0)  -->
<!DOCTYPE svg PUBLIC "-//W3C//DTD SVG 1.1//EN" "http://www.w3.org/Graphics/SVG/1.1/DTD/svg11.dtd" [
	<!ENTITY ns_flows "http://ns.adobe.com/Flows/1.0/">
	<!ENTITY ns_extend "http://ns.adobe.com/Extensibility/1.0/">
	<!ENTITY ns_ai "http://ns.adobe.com/AdobeIllustrator/10.0/">
	<!ENTITY ns_graphs "http://ns.adobe.com/Graphs/1.0/">
]>
<svg version="1.1" id="Layer_1" xmlns:x="&ns_extend;" xmlns:i="&ns_ai;" xmlns:graph="&ns_graphs;"
	 xmlns="http://www.w3.org/2000/svg" xmlns:xlink="http://www.w3.org/1999/xlink" xmlns:a="http://ns.adobe.com/AdobeSVGViewerExtensions/3.0/"
	 x="0px" y="0px" viewBox="0 0 1400 980" enable-background="new 0 0 1400 980" xml:space="preserve">
<g>
	<radialGradient id="SVGID_1_" cx="700" cy="490" r="1015.826" gradientUnits="userSpaceOnUse">
		<stop  offset="0" style="stop-color:#093A49"/>
		<stop  offset="0.2194" style="stop-color:#0E3746"/>
		<stop  offset="0.5397" style="stop-color:#14303C"/>
		<stop  offset="0.9202" style="stop-color:#17222C"/>
		<stop  offset="1" style="stop-color:#161F28"/>
		<a:midPointStop  offset="0" style="stop-color:#093A49"/>
		<a:midPointStop  offset="0.6253" style="stop-color:#093A49"/>
		<a:midPointStop  offset="1" style="stop-color:#161F28"/>
	</radialGradient>
	<rect y="0" fill="url(#SVGID_1_)" width="1400" height="980"/>
	<g>
		<g>
			<g>
				<g>
					<path fill="#6CCCDE" d="M86,309.5c0-64.4,52.2-116.6,116.6-116.6l0,0c64.4,0,116.6,52.2,116.6,116.6l0,0
						c0,64.4-52.2,116.6-116.6,116.6l0,0C138.2,426.1,86,373.9,86,309.5L86,309.5z M121.4,228.3c-20.8,20.8-33.6,49.5-33.6,81.2l0,0
						c0,31.7,12.9,60.4,33.6,81.2l0,0c20.8,20.8,49.5,33.6,81.2,33.6l0,0c31.7,0,60.4-12.9,81.2-33.6l0,0
						c20.8-20.8,33.7-49.5,33.7-81.2l0,0c0-31.7-12.9-60.4-33.7-81.2l0,0c-20.8-20.8-49.5-33.6-81.2-33.6l0,0
						C170.9,194.6,142.1,207.5,121.4,228.3L121.4,228.3z"/>
				</g>
			</g>
			<g>
				<g>
					<path fill="#6CCCDE" d="M98.2,309.5c0-57.6,46.7-104.4,104.4-104.4l0,0c57.6,0,104.4,46.7,104.4,104.4l0,0
						c0,57.6-46.7,104.4-104.4,104.4l0,0C144.9,413.9,98.2,367.1,98.2,309.5L98.2,309.5z M136,242.9c-17,17-27.6,40.6-27.6,66.6l0,0
						c0,26,10.5,49.5,27.6,66.6l0,0c17,17,40.6,27.6,66.6,27.6l0,0c26,0,49.5-10.5,66.6-27.6l0,0c17-17,27.6-40.6,27.6-66.6l0,0
						c0-26-10.5-49.5-27.6-66.6l0,0c-17-17-40.6-27.6-66.6-27.6l0,0C176.6,215.4,153.1,225.9,136,242.9L136,242.9z"/>
				</g>
			</g>
		</g>
		<path fill="#6CCCDE" d="M637.7,355.3c5-13.3,7.3-27.8,6.2-42.4h-7.5c-0.2-4.7-0.8-9.4-1.6-13.9h7.1c-0.7-3.4-1.6-6.8-2.8-10.3
			c-4.8-14.5-12.5-27.2-22.4-37.6l-2,2.7c-19.1-24.8-49.1-40.8-82.8-40.8c-1.3,0-2.7,0.1-4,0.1v-16.4c-65,2.1-117,55.4-117,120.9
			c0,18.5,4.2,35.9,11.5,51.6l13.7-9.6c16.2,36.8,53,62.5,95.8,62.5c16.4,0,31.9-3.8,45.7-10.5l0.7,2.2c23.6-8.6,42-25.2,53.3-45.8
			l-6-4.3c2.1-4.3,3.9-8.7,5.4-13.2L637.7,355.3z M622.2,361.2l-12.7-9.2c-7.9,16.1-21.7,29.3-39.6,36l6.4,19.4
			c-13.4,6.6-28.4,10.4-44.4,10.4c-27.7,0-52.7-11.2-70.9-29.3c-8.9-8.9-16.2-19.6-21.3-31.4l10.2-7.1c-4-10-6.2-20.9-6.2-32.4
			c0-47.3,37.3-85.9,84.1-88v-12.1c1.3-0.1,2.7-0.1,4-0.1c27.7,0,52.7,11.2,70.9,29.3c3.3,3.3,6.4,6.9,9.3,10.7l-11.9,15.9
			c5.7,6.9,10.2,14.9,13.2,23.8c0.2,0.6,0.4,1.2,0.5,1.8h16.6c0.9,4.5,1.4,9.2,1.6,13.9h-15.4c0.9,8.7,0.1,17.4-2.1,25.6l12.9,9.4
			C626.1,352.5,624.3,357,622.2,361.2z"/>
		<g>
			<path fill="#6CCCDE" d="M861.1,409.3c0.7,0,1.5,0,2.2-0.1l0,0l0.7,16.8c-0.9,0-1.7,0.1-2.6,0.1l0,0L861.1,409.3L861.1,409.3z
				 M853.6,426l0.8-16.8c0.7,0,1.5,0.1,2.2,0.1l0,0h0l-0.4,16.8C855.3,426.1,854.5,426,853.6,426L853.6,426z M867.7,409
				c0.7-0.1,1.5-0.1,2.2-0.2l0,0l1.8,16.7c-0.9,0.1-1.7,0.2-2.6,0.2l0,0L867.7,409L867.7,409z M845.9,425.4l1.9-16.7
				c0.7,0.1,1.5,0.2,2.2,0.2l0,0l-1.5,16.7C847.6,425.5,846.7,425.5,845.9,425.4L845.9,425.4z M874.3,408.2c0.7-0.1,1.5-0.2,2.2-0.4
				l0,0v0l2.9,16.6c-0.8,0.1-1.7,0.3-2.6,0.4l0,0L874.3,408.2L874.3,408.2z M838.2,424.2l3-16.5c0.7,0.1,1.5,0.3,2.2,0.4l0,0l0,0
				l-2.6,16.6C839.9,424.5,839.1,424.4,838.2,424.2L838.2,424.2z M880.8,407c0.7-0.2,1.4-0.3,2.2-0.5l0,0l4,16.3
				c-0.8,0.2-1.7,0.4-2.5,0.6l0,0L880.8,407L880.8,407z M830.6,422.6l4.1-16.3c0.7,0.2,1.4,0.4,2.1,0.5l0,0l-3.7,16.4
				C832.3,423,831.5,422.8,830.6,422.6L830.6,422.6z M887.2,405.3c0.7-0.2,1.4-0.4,2.1-0.6l0,0l5.1,16c-0.8,0.3-1.6,0.5-2.5,0.8l0,0
				L887.2,405.3L887.2,405.3z M823.1,420.4l5.2-16c0.7,0.2,1.4,0.4,2.1,0.7l0,0h0l-4.8,16.1C824.8,420.9,824,420.7,823.1,420.4
				L823.1,420.4z M893.5,403.3c0.7-0.3,1.4-0.5,2.1-0.8l0,0l6.1,15.6c-0.8,0.3-1.6,0.6-2.4,0.9l0,0L893.5,403.3L893.5,403.3z
				 M815.8,417.8l6.3-15.6c0.7,0.3,1.4,0.5,2.1,0.8l0,0l-5.9,15.7C817.4,418.4,816.6,418.1,815.8,417.8L815.8,417.8z M899.7,400.8
				c0.7-0.3,1.3-0.6,2-0.9l0,0l7.2,15.2c-0.8,0.4-1.6,0.7-2.3,1.1l0,0L899.7,400.8L899.7,400.8z M808.7,414.6l7.3-15.1
				c0.7,0.3,1.3,0.6,2,0.9l0,0l-6.9,15.3C810.3,415.4,809.5,415,808.7,414.6L808.7,414.6z M905.6,397.9c0.7-0.3,1.3-0.7,1.9-1.1l0,0
				l8.2,14.7c-0.8,0.4-1.5,0.8-2.3,1.2l0,0L905.6,397.9L905.6,397.9z M801.8,411l8.3-14.6c0.6,0.4,1.3,0.7,1.9,1.1l0,0l-8,14.8
				C803.3,411.9,802.6,411.5,801.8,411L801.8,411z M911.4,394.6c0.6-0.4,1.3-0.8,1.9-1.2l0,0l9.1,14.1c-0.7,0.5-1.4,0.9-2.2,1.4l0,0
				L911.4,394.6L911.4,394.6z M795.2,407l9.2-14c0.6,0.4,1.2,0.8,1.9,1.2l0,0l0,0l-8.9,14.2C796.6,407.9,795.9,407.4,795.2,407
				L795.2,407z M836.9,406.8L836.9,406.8L836.9,406.8C836.9,406.8,836.9,406.8,836.9,406.8L836.9,406.8z M916.9,390.9
				c0.6-0.4,1.2-0.9,1.8-1.3l0,0h0l10,13.5c-0.7,0.5-1.4,1-2.1,1.5l0,0L916.9,390.9L916.9,390.9z M788.9,402.5l10.2-13.4
				c0.6,0.5,1.2,0.9,1.8,1.3l0,0l-9.9,13.6C790.2,403.5,789.5,403,788.9,402.5L788.9,402.5z M922.2,386.9c0.6-0.5,1.1-0.9,1.7-1.4
				l0,0l10.9,12.8c-0.7,0.6-1.3,1.1-2,1.7l0,0L922.2,386.9L922.2,386.9z M901.7,399.9L901.7,399.9
				C901.7,399.9,901.7,399.9,901.7,399.9L901.7,399.9L901.7,399.9L901.7,399.9z M782.8,397.6l11-12.7c0.6,0.5,1.1,1,1.7,1.4l0,0
				l-10.7,12.9C784.1,398.7,783.5,398.2,782.8,397.6L782.8,397.6z M927.2,382.6c0.5-0.5,1.1-1,1.6-1.5l0,0l11.7,12
				c-0.6,0.6-1.2,1.2-1.9,1.8l0,0L927.2,382.6L927.2,382.6z M777.1,392.3l11.8-11.9c0.5,0.5,1.1,1,1.6,1.5l0,0L779,394.1
				C778.4,393.5,777.8,392.9,777.1,392.3L777.1,392.3z M913.3,393.4L913.3,393.4C913.3,393.4,913.3,393.4,913.3,393.4L913.3,393.4
				L913.3,393.4L913.3,393.4z M800.8,390.4L800.8,390.4L800.8,390.4C800.8,390.4,800.8,390.4,800.8,390.4L800.8,390.4z M931.9,377.9
				c0.5-0.5,1-1.1,1.5-1.6l0,0l12.5,11.2c-0.6,0.6-1.2,1.3-1.7,1.9l0,0L931.9,377.9L931.9,377.9z M771.8,386.7l12.6-11.1
				c0.5,0.6,1,1.1,1.5,1.6l0,0l-12.3,11.4C773,388,772.4,387.3,771.8,386.7L771.8,386.7z M936.3,372.9c0.5-0.6,0.9-1.1,1.4-1.7l0,0
				l13.2,10.4c-0.5,0.7-1.1,1.3-1.6,2l0,0L936.3,372.9L936.3,372.9z M766.9,380.7l13.3-10.3c0.5,0.6,0.9,1.2,1.4,1.7l0,0l-13.1,10.6
				C767.9,382.1,767.4,381.4,766.9,380.7L766.9,380.7z M928.8,381L928.8,381C928.8,381,928.8,381,928.8,381L928.8,381L928.8,381
				L928.8,381z M940.4,367.6c0.4-0.6,0.9-1.2,1.3-1.8l0,0l13.9,9.5c-0.5,0.7-1,1.4-1.5,2.1l0,0L940.4,367.6L940.4,367.6z
				 M762.4,374.4l14-9.4c0.4,0.6,0.8,1.2,1.3,1.8l0,0l-13.7,9.7C763.3,375.9,762.8,375.1,762.4,374.4L762.4,374.4z M944.1,362.1
				c0.4-0.6,0.8-1.3,1.1-1.9l0,0l14.5,8.5c-0.4,0.7-0.9,1.5-1.3,2.2l0,0L944.1,362.1L944.1,362.1z M758.3,367.9l14.5-8.4
				c0.4,0.6,0.7,1.3,1.1,1.9l0,0l-14.4,8.7C759.1,369.3,758.7,368.6,758.3,367.9L758.3,367.9z M947.4,356.3c0.3-0.6,0.7-1.3,1-2l0,0
				l15,7.6c-0.4,0.8-0.8,1.5-1.2,2.3l0,0L947.4,356.3L947.4,356.3z M754.6,361l15.1-7.4c0.3,0.7,0.7,1.3,1,2l0,0l-14.9,7.8
				C755.4,362.6,755,361.8,754.6,361L754.6,361z M950.3,350.4c0.3-0.7,0.6-1.4,0.9-2l0,0l15.5,6.5c-0.3,0.8-0.7,1.6-1,2.4l0,0
				L950.3,350.4L950.3,350.4z M751.4,354l15.5-6.4c0.3,0.7,0.6,1.4,0.9,2l0,0l-15.4,6.8C752.1,355.6,751.7,354.8,751.4,354
				L751.4,354z M948.4,354.4L948.4,354.4C948.4,354.4,948.4,354.4,948.4,354.4L948.4,354.4L948.4,354.4L948.4,354.4z M952.8,344.2
				c0.3-0.7,0.5-1.4,0.7-2.1l0,0v0l15.9,5.5c-0.3,0.8-0.6,1.6-0.9,2.4l0,0L952.8,344.2L952.8,344.2z M748.7,346.7l15.9-5.4
				c0.2,0.7,0.5,1.4,0.7,2.1l0,0l-15.8,5.7C749.2,348.3,749,347.5,748.7,346.7L748.7,346.7z M765.3,343.4L765.3,343.4L765.3,343.4
				C765.3,343.4,765.3,343.4,765.3,343.4L765.3,343.4z M954.9,337.9c0.2-0.7,0.4-1.4,0.6-2.1l0,0h0l16.2,4.4
				c-0.2,0.8-0.5,1.7-0.7,2.5l0,0L954.9,337.9L954.9,337.9z M746.5,339.3l16.3-4.3c0.2,0.7,0.4,1.4,0.6,2.1l0,0h0l-16.1,4.6
				C746.9,340.9,746.7,340.1,746.5,339.3L746.5,339.3z M956.6,331.5c0.2-0.7,0.3-1.4,0.5-2.2l0,0h0l16.5,3.3
				c-0.2,0.8-0.4,1.7-0.5,2.5l0,0L956.6,331.5L956.6,331.5z M744.7,331.7l16.5-3.2c0.1,0.7,0.3,1.4,0.4,2.2l0,0l-16.4,3.5
				C745.1,333.4,744.9,332.6,744.7,331.7L744.7,331.7z M957.8,325c0.1-0.7,0.2-1.5,0.3-2.2l0,0l16.7,2.2c-0.1,0.9-0.2,1.7-0.4,2.6
				l0,0L957.8,325L957.8,325z M743.5,324l16.7-2.1c0.1,0.7,0.2,1.5,0.3,2.2l0,0v0l-16.6,2.4C743.7,325.8,743.6,324.9,743.5,324
				L743.5,324z M958.6,318.4c0.1-0.7,0.1-1.5,0.2-2.2l0,0l16.8,1.1c-0.1,0.9-0.1,1.7-0.2,2.6l0,0L958.6,318.4L958.6,318.4z
				 M742.8,316.3l16.8-1c0,0.7,0.1,1.5,0.2,2.2l0,0l-16.8,1.3C742.9,318,742.9,317.2,742.8,316.3L742.8,316.3z M959,311.7
				c0-0.7,0-1.5,0-2.2l0,0h0h16.8c0,0.9,0,1.7,0,2.6l0,0L959,311.7L959,311.7z M742.6,309.5c0-0.3,0-0.6,0-0.9l0,0l16.8,0.1
				c0,0.3,0,0.5,0,0.8l0,0c0,0.5,0,0.9,0,1.4l0,0l-16.8,0.2C742.6,310.6,742.6,310.1,742.6,309.5L742.6,309.5z M959,306.7l16.8-0.5
				c0,0.9,0,1.7,0,2.6l0,0l-16.8,0.1C959,308.2,959,307.4,959,306.7L959,306.7z M759.6,304.3l-16.8-0.9c0-0.9,0.1-1.7,0.2-2.6l0,0
				l16.8,1.2C759.7,302.8,759.6,303.5,759.6,304.3L759.6,304.3L759.6,304.3L759.6,304.3z M958.6,300.1l16.7-1.6
				c0.1,0.9,0.2,1.7,0.2,2.6l0,0l-16.8,1.2C958.7,301.5,958.7,300.8,958.6,300.1L958.6,300.1z M743.4,295.7c0.1-0.9,0.2-1.7,0.3-2.6
				l0,0l16.6,2.3c-0.1,0.7-0.2,1.5-0.3,2.2l0,0L743.4,295.7L743.4,295.7z M957.8,293.5l16.6-2.7c0.1,0.8,0.3,1.7,0.4,2.6l0,0
				l-16.6,2.3C958,294.9,957.9,294.2,957.8,293.5L957.8,293.5z M744.6,288c0.2-0.8,0.3-1.7,0.5-2.5l0,0l16.4,3.4
				c-0.1,0.7-0.3,1.4-0.4,2.2l0,0L744.6,288L744.6,288z M956.5,287l16.4-3.8c0.2,0.8,0.4,1.7,0.6,2.5l0,0l-16.5,3.4
				C956.8,288.4,956.6,287.7,956.5,287L956.5,287z M746.3,280.4c0.2-0.8,0.4-1.7,0.7-2.5l0,0l16.2,4.5c-0.2,0.7-0.4,1.4-0.6,2.1l0,0
				L746.3,280.4L746.3,280.4z M954.8,280.6l16.1-4.9c0.3,0.8,0.5,1.7,0.7,2.5l0,0l-16.2,4.5C955.2,282,955,281.3,954.8,280.6
				L954.8,280.6z M748.5,273c0.3-0.8,0.5-1.6,0.8-2.5l0,0l15.8,5.6c-0.2,0.7-0.5,1.4-0.7,2.1l0,0L748.5,273L748.5,273z M952.6,274.3
				l15.7-5.9c0.3,0.8,0.6,1.6,0.9,2.4l0,0l-15.8,5.6C953.1,275.6,952.9,275,952.6,274.3L952.6,274.3z M751.1,265.7
				c0.3-0.8,0.7-1.6,1-2.4l0,0l15.4,6.7c-0.3,0.7-0.6,1.4-0.9,2l0,0L751.1,265.7L751.1,265.7z M950.1,268.2l15.3-7
				c0.4,0.8,0.7,1.6,1,2.4l0,0l-15.4,6.6C950.7,269.5,950.4,268.8,950.1,268.2L950.1,268.2z M754.3,258.6c0.4-0.8,0.8-1.6,1.2-2.3
				l0,0l14.9,7.7c-0.3,0.7-0.7,1.3-1,2l0,0L754.3,258.6L754.3,258.6z M947.1,262.2l14.8-8c0.4,0.8,0.8,1.5,1.2,2.3l0,0l-15,7.6
				C947.8,263.5,947.5,262.9,947.1,262.2L947.1,262.2z M757.9,251.7c0.4-0.7,0.9-1.5,1.3-2.2l0,0l14.4,8.7c-0.4,0.6-0.8,1.3-1.1,1.9
				l0,0L757.9,251.7L757.9,251.7z M943.8,256.5l14.2-8.9c0.5,0.7,0.9,1.5,1.3,2.2l0,0l-14.4,8.6
				C944.6,257.8,944.2,257.1,943.8,256.5L943.8,256.5z M762,245.1c0.5-0.7,1-1.4,1.5-2.1l0,0l13.8,9.6c-0.4,0.6-0.8,1.2-1.2,1.8l0,0
				L762,245.1L762,245.1z M940.1,251l13.6-9.9c0.5,0.7,1,1.4,1.5,2.1l0,0l-13.8,9.6C940.9,252.2,940.5,251.6,940.1,251L940.1,251z
				 M766.5,238.8c0.5-0.7,1.1-1.4,1.6-2l0,0l13.1,10.5c-0.5,0.6-0.9,1.2-1.4,1.7l0,0L766.5,238.8L766.5,238.8z M936,245.8l12.9-10.7
				c0.6,0.7,1.1,1.3,1.6,2l0,0l-13.2,10.5C936.9,246.9,936.5,246.3,936,245.8L936,245.8z M771.5,232.8c0.6-0.6,1.1-1.3,1.7-1.9l0,0
				l12.4,11.3c-0.5,0.5-1,1.1-1.5,1.7l0,0L771.5,232.8L771.5,232.8z M931.6,240.8L931.6,240.8l12.2-11.6c0.6,0.6,1.2,1.3,1.8,1.9
				l0,0l-12.4,11.3C932.6,241.9,932.1,241.3,931.6,240.8L931.6,240.8z M776.7,227.1c0.6-0.6,1.2-1.2,1.8-1.8l0,0l11.6,12.1
				c-0.5,0.5-1.1,1-1.6,1.6l0,0L776.7,227.1L776.7,227.1z M926.9,236.1l11.4-12.4c0.6,0.6,1.3,1.2,1.9,1.8l0,0l-11.7,12.1
				C928,237.1,927.4,236.6,926.9,236.1L926.9,236.1z M782.4,221.8c0.6-0.6,1.3-1.1,2-1.7l0,0l10.8,12.9c-0.6,0.5-1.1,1-1.7,1.4l0,0
				L782.4,221.8L782.4,221.8z M921.8,231.8l10.5-13.1c0.7,0.5,1.3,1.1,2,1.6l0,0l-10.8,12.8C923,232.7,922.4,232.3,921.8,231.8
				L921.8,231.8z M788.4,216.9c0.7-0.5,1.4-1,2.1-1.6l0,0l9.9,13.6c-0.6,0.4-1.2,0.9-1.8,1.3l0,0L788.4,216.9L788.4,216.9z
				 M916.5,227.8L916.5,227.8l9.7-13.8c0.7,0.5,1.4,1,2.1,1.5l0,0l-10,13.5C917.7,228.7,917.1,228.2,916.5,227.8L916.5,227.8z
				 M804,226.4C804,226.4,804,226.4,804,226.4L804,226.4L804,226.4L804,226.4L804,226.4z M794.7,212.4c0.7-0.5,1.4-0.9,2.2-1.4l0,0
				l9,14.2c-0.6,0.4-1.2,0.8-1.8,1.2l0,0L794.7,212.4L794.7,212.4z M911,224.2l8.7-14.4c0.7,0.4,1.5,0.9,2.2,1.4l0,0l-9,14.2
				C912.2,224.9,911.6,224.5,911,224.2L911,224.2z M801.3,208.3c0.7-0.4,1.5-0.8,2.3-1.3l0,0l8,14.8c-0.6,0.3-1.3,0.7-1.9,1.1l0,0
				L801.3,208.3L801.3,208.3z M905.2,220.9l7.7-14.9c0.8,0.4,1.5,0.8,2.3,1.2l0,0l-8.1,14.7C906.5,221.6,905.8,221.2,905.2,220.9
				L905.2,220.9z M905.2,220.9C905.2,220.9,905.2,220.9,905.2,220.9L905.2,220.9L905.2,220.9L905.2,220.9L905.2,220.9z M808.1,204.7
				c0.8-0.4,1.5-0.7,2.3-1.1l0,0l7,15.3c-0.7,0.3-1.3,0.6-2,0.9l0,0L808.1,204.7L808.1,204.7z M899.2,218l6.7-15.4
				c0.8,0.3,1.6,0.7,2.4,1.1l0,0l-7.1,15.2C900.5,218.6,899.8,218.3,899.2,218L899.2,218z M815.2,201.5c0.8-0.3,1.6-0.6,2.4-0.9l0,0
				l6,15.7c-0.7,0.3-1.4,0.5-2.1,0.8l0,0L815.2,201.5L815.2,201.5z M893,215.6l5.7-15.8c0.8,0.3,1.6,0.6,2.4,0.9l0,0l-6,15.7
				C894.4,216.1,893.7,215.8,893,215.6L893,215.6z M827.8,214.8C827.8,214.8,827.8,214.8,827.8,214.8L827.8,214.8L827.8,214.8
				L827.8,214.8L827.8,214.8z M822.5,198.8c0.8-0.3,1.6-0.5,2.5-0.8l0,0l4.9,16.1c-0.7,0.2-1.4,0.4-2.1,0.7l0,0L822.5,198.8
				L822.5,198.8z M886.7,213.5l4.6-16.2c0.8,0.2,1.7,0.5,2.5,0.7l0,0l-5,16.1C888.1,213.9,887.4,213.7,886.7,213.5L886.7,213.5z
				 M829.9,196.6c0.8-0.2,1.7-0.4,2.5-0.6l0,0l3.8,16.4c-0.7,0.2-1.4,0.3-2.1,0.5l0,0L829.9,196.6L829.9,196.6z M880.2,211.9
				l3.5-16.4c0.8,0.2,1.7,0.4,2.5,0.6l0,0l-3.9,16.4C881.7,212.2,880.9,212.1,880.2,211.9L880.2,211.9z M837.5,194.9
				c0.8-0.2,1.7-0.3,2.5-0.5l0,0l2.7,16.6c-0.7,0.1-1.5,0.3-2.2,0.4l0,0L837.5,194.9L837.5,194.9z M873.7,210.7l2.4-16.6
				c0.9,0.1,1.7,0.3,2.6,0.4l0,0l-2.8,16.6C875.1,211,874.4,210.9,873.7,210.7L873.7,210.7z M873.7,210.7
				C873.7,210.7,873.7,210.7,873.7,210.7L873.7,210.7L873.7,210.7L873.7,210.7L873.7,210.7z M845.2,193.7c0.9-0.1,1.7-0.2,2.6-0.3
				l0,0l1.6,16.7c-0.7,0.1-1.5,0.1-2.2,0.2l0,0L845.2,193.7L845.2,193.7z M867.1,210l1.3-16.8c0.9,0.1,1.7,0.1,2.6,0.2l0,0
				l-1.7,16.7C868.6,210.1,867.8,210.1,867.1,210L867.1,210z M867.1,210L867.1,210L867.1,210L867.1,210z M853.8,209.9l-0.9-16.8
				c0.9,0,1.7-0.1,2.6-0.1l0,0l0.5,16.8C855.3,209.8,854.5,209.8,853.8,209.9L853.8,209.9L853.8,209.9L853.8,209.9z M860.4,209.7
				L860.4,209.7l0.2-16.8c0.9,0,1.7,0,2.6,0.1l0,0l-0.6,16.8C861.9,209.7,861.2,209.7,860.4,209.7L860.4,209.7z"/>
		</g>
		<path fill="#6CCCDE" d="M1307.7,309.6c0-2.4-0.1-4.7-0.2-7l6.6-0.4c-0.1-0.8-0.1-1.5-0.2-2.3l-6.6,0.5c-0.2-1.9-0.4-3.8-0.6-5.7
			l6.6-0.9c-0.1-0.8-0.2-1.5-0.3-2.3l-6.5,1c-0.9-5.8-2.3-11.4-4-16.9l6.3-2c-0.2-0.7-0.5-1.5-0.7-2.2l-6.3,2.2
			c-1.9-5.5-4.2-10.8-6.9-15.9l5.8-3.1c-0.4-0.7-0.7-1.3-1.1-2l-5.8,3.2c-2.8-5.1-6.1-9.9-9.7-14.4l5.2-4.1c-0.5-0.6-1-1.2-1.4-1.8
			l-5.1,4.2c-3.7-4.5-7.7-8.6-12.1-12.5l4.4-5c-0.6-0.5-1.2-1-1.7-1.5l-4.3,5c-4.4-3.8-9.1-7.2-14-10.2l3.4-5.6
			c-0.7-0.4-1.3-0.8-2-1.2l-3.3,5.7c-5-2.9-10.2-5.4-15.6-7.5l2.4-6.2c-0.7-0.3-1.4-0.5-2.2-0.8l-2.3,6.2c-5.4-2-11-3.5-16.7-4.6
			l1.3-6.5c-0.7-0.1-1.5-0.3-2.3-0.4l-1.1,6.5c-5.6-1-11.4-1.5-17.3-1.6l0.1-6.6c-0.6,0-1.1,0-1.7,0c-0.2,0-0.4,0-0.7,0l0,6.6
			c-5.9,0-11.7,0.5-17.3,1.4l-1.1-6.5c-0.8,0.1-1.5,0.3-2.3,0.4l1.2,6.5c-5.8,1.1-11.4,2.5-16.8,4.5l-2.2-6.2
			c-0.7,0.3-1.4,0.5-2.2,0.8l2.3,6.2c-5.5,2.1-10.7,4.5-15.7,7.4l-3.3-5.8c-0.7,0.4-1.3,0.8-2,1.2l3.4,5.7c-5,3-9.7,6.3-14.2,10
			l-4.2-5.1c-0.6,0.5-1.2,1-1.8,1.5l4.4,5c-4.4,3.8-8.5,7.9-12.2,12.4l-5.1-4.3c-0.5,0.6-1,1.2-1.5,1.8l5.1,4.2
			c-3.6,4.5-6.9,9.3-9.8,14.3l-5.7-3.3c-0.4,0.7-0.8,1.3-1.1,2l5.8,3.2c-2.8,5-5.2,10.3-7.1,15.8l-6.2-2.2c-0.3,0.7-0.5,1.5-0.8,2.2
			l6.3,2.1c-1.8,5.4-3.2,11.1-4.2,16.8l-6.5-1.1c-0.1,0.8-0.2,1.5-0.4,2.3l6.6,1c-0.8,5.3-1.2,10.6-1.2,16.1c0,0.4,0,0.8,0,1.2
			l-6.6,0.1c0,0.8,0,1.5,0.1,2.3l6.6-0.2c0.2,5.9,0.8,11.6,1.9,17.3l-6.5,1.2c0.1,0.8,0.3,1.5,0.5,2.3l6.5-1.4
			c1.2,5.7,2.9,11.3,4.9,16.6l-6.2,2.4c0.3,0.7,0.6,1.4,0.8,2.1l6.1-2.5c2.2,5.4,4.8,10.6,7.8,15.5l-5.7,3.4c0.4,0.7,0.8,1.3,1.2,2
			l5.6-3.5c3.1,4.9,6.6,9.5,10.4,13.9l-5,4.4c0.5,0.6,1,1.1,1.5,1.7l4.9-4.5c3.9,4.3,8.2,8.2,12.7,11.8l-4.1,5.2
			c0.6,0.5,1.2,1,1.8,1.4l4-5.3c4.6,3.5,9.4,6.7,14.6,9.5l-3.1,5.8c0.7,0.4,1.4,0.7,2,1.1l3-5.9c5.1,2.6,10.5,4.9,16,6.7l-2.1,6.3
			c0.7,0.2,1.5,0.5,2.2,0.7l1.9-6.3c5.5,1.7,11.1,2.9,16.9,3.7l-0.9,6.6c0.8,0.1,1.5,0.2,2.3,0.3l0.8-6.6c4.3,0.5,8.7,0.8,13.2,0.8
			c1.4,0,2.7-0.1,4.1-0.1l0.3,6.6c0.8,0,1.5-0.1,2.3-0.1l-0.4-6.6c5.9-0.3,11.6-1.1,17.2-2.3l1.4,6.5c0.8-0.2,1.5-0.3,2.2-0.5
			l-1.5-6.4c5.7-1.4,11.2-3.1,16.5-5.3l2.5,6.1c0.7-0.3,1.4-0.6,2.1-0.9l-2.6-6.1c5.3-2.3,10.4-5.1,15.3-8.2l3.6,5.6
			c0.6-0.4,1.3-0.8,1.9-1.3l-3.7-5.5c4.8-3.2,9.4-6.8,13.6-10.8l4.5,4.8c0.6-0.5,1.1-1,1.7-1.6l-4.6-4.8c4.2-4,8-8.3,11.5-13l5.3,4
			c0.5-0.6,0.9-1.2,1.4-1.8l-5.4-3.9c3.4-4.7,6.4-9.6,9-14.8l5.9,3c0.3-0.7,0.7-1.4,1-2.1l-5.9-2.9c2.5-5.2,4.6-10.6,6.3-16.2
			l6.3,1.9c0.2-0.7,0.4-1.5,0.6-2.2l-6.4-1.8c1.5-5.5,2.7-11.2,3.3-17l6.6,0.7c0.1-0.8,0.2-1.5,0.2-2.3l-6.6-0.6
			C1307.5,316.5,1307.7,313,1307.7,309.6z M1197.5,399.6c-49.7,0-90-40.3-90-90c0-49.7,40.3-90,90-90c49.7,0,90,40.3,90,90
			C1287.5,359.3,1247.2,399.6,1197.5,399.6z"/>
		<g>
			<g>
				<path fill="#6CCCDE" d="M88.5,670.6c0-64.4,52.2-116.6,116.6-116.6l0,0c64.4,0,116.6,52.2,116.6,116.6l0,0
					c0,64.4-52.2,116.6-116.6,116.6l0,0C140.7,787.2,88.5,734.9,88.5,670.6L88.5,670.6z M126.4,591.9
					c-20.1,20.1-32.6,47.9-32.6,78.7l0,0c0,30.7,12.4,58.5,32.6,78.7l0,0c20.1,20.1,47.9,32.6,78.7,32.6l0,0
					c30.7,0,58.5-12.4,78.7-32.6l0,0c20.1-20.1,32.6-47.9,32.6-78.7l0,0c0-30.7-12.4-58.5-32.6-78.7l0,0
					c-20.1-20.1-47.9-32.6-78.7-32.6l0,0C174.4,559.3,146.6,571.7,126.4,591.9L126.4,591.9z"/>
			</g>
			<g>
				<path fill="#6CCCDE" d="M206.2,739.3c0.5,0,1.1,0,1.6,0l0,0l0.7,17.8c-0.7,0-1.3,0-2,0.1l0,0L206.2,739.3L206.2,739.3z
					 M188.7,755.6l3.4-17.5c0.5,0.1,1,0.2,1.6,0.3l0,0v0l-3,17.6C190,755.9,189.4,755.8,188.7,755.6L188.7,755.6z M220.3,737.6
					c0.5-0.1,1-0.2,1.5-0.4l0,0l4.3,17.3c-0.6,0.2-1.3,0.3-1.9,0.5l0,0L220.3,737.6L220.3,737.6z M171.6,750.5l6.9-16.5
					c0.5,0.2,1,0.4,1.5,0.6l0,0l-6.5,16.6C172.8,751,172.2,750.7,171.6,750.5L171.6,750.5z M233.7,733.1c0.5-0.2,1-0.4,1.4-0.7l0,0
					v0l7.8,16.1c-0.6,0.3-1.2,0.6-1.8,0.8l0,0L233.7,733.1L233.7,733.1z M155.9,741.9l10.1-14.7c0.4,0.3,0.9,0.6,1.3,0.9l0,0h0
					l-9.8,14.9C157,742.6,156.5,742.2,155.9,741.9L155.9,741.9z M246,725.9c0.4-0.3,0.8-0.6,1.3-1l0,0l0,0l10.9,14.1
					c-0.5,0.4-1,0.8-1.6,1.2l0,0L246,725.9L246,725.9z M142.3,730.3l12.9-12.3c0.4,0.4,0.7,0.8,1.1,1.1l0,0l0,0l-12.6,12.6
					C143.3,731.2,142.8,730.7,142.3,730.3L142.3,730.3z M256.4,716.3c0.4-0.4,0.7-0.8,1-1.2l0,0l0,0l13.6,11.6
					c-0.4,0.5-0.9,1-1.3,1.5l0,0L256.4,716.3L256.4,716.3z M131.4,716.1l15.2-9.4c0.3,0.4,0.6,0.9,0.8,1.3l0,0l-14.9,9.7
					C132.1,717.3,131.8,716.7,131.4,716.1L131.4,716.1z M264.7,704.8c0.3-0.5,0.5-0.9,0.8-1.4l0,0v0l15.7,8.5
					c-0.3,0.6-0.6,1.2-1,1.7l0,0L264.7,704.8L264.7,704.8z M147.4,708.1L147.4,708.1L147.4,708.1
					C147.4,708.1,147.4,708.1,147.4,708.1L147.4,708.1z M123.6,700l16.8-6.1c0.2,0.5,0.4,1,0.6,1.5l0,0l0,0l-16.6,6.5
					C124.1,701.3,123.8,700.7,123.6,700L123.6,700z M270.5,691.8c0.2-0.5,0.3-1,0.5-1.5l0,0v0l17.1,5.1c-0.2,0.6-0.4,1.3-0.6,1.9
					l0,0L270.5,691.8L270.5,691.8z M273.5,677.9c0.1-0.5,0.1-1,0.1-1.6l0,0v0l17.8,1.5c-0.1,0.7-0.1,1.3-0.2,2l0,0L273.5,677.9
					L273.5,677.9z M118.6,675.5l17.8-1c0,0.5,0.1,1.1,0.1,1.6l0,0v0l-17.8,1.4C118.7,676.8,118.6,676.2,118.6,675.5L118.6,675.5z
					 M273.3,662.2l17.7-2.2c0.1,0.7,0.2,1.3,0.2,2l0,0l-17.8,1.8C273.5,663.2,273.4,662.7,273.3,662.2L273.3,662.2z M119.1,659.6
					c0.1-0.7,0.2-1.3,0.3-2l0,0l17.6,2.6c-0.1,0.5-0.1,1-0.2,1.6l0,0L119.1,659.6L119.1,659.6z M270.2,648.3L270.2,648.3l16.9-5.8
					c0.2,0.6,0.4,1.3,0.6,1.9l0,0l-17,5.4C270.5,649.3,270.4,648.8,270.2,648.3L270.2,648.3z M123.2,642.2c0.2-0.6,0.4-1.3,0.7-1.9
					l0,0l16.7,6.2c-0.2,0.5-0.4,1-0.5,1.5l0,0L123.2,642.2L123.2,642.2z M264.3,635.5l15.3-9.1c0.3,0.6,0.7,1.1,1,1.7l0,0l-15.5,8.8
					C264.8,636.4,264.5,635.9,264.3,635.5L264.3,635.5z M130.8,626c0.3-0.6,0.7-1.1,1-1.7l0,0l15.1,9.5c-0.3,0.4-0.6,0.9-0.8,1.3
					l0,0v0L130.8,626L130.8,626z M255.8,624.1l13.1-12.1c0.4,0.5,0.9,1,1.3,1.5l0,0l-13.4,11.8C256.5,624.9,256.1,624.5,255.8,624.1
					L255.8,624.1z M141.5,611.7c0.5-0.5,0.9-1,1.4-1.4l0,0l12.8,12.4c-0.4,0.4-0.7,0.8-1.1,1.1l0,0L141.5,611.7L141.5,611.7z
					 M245.2,614.7l10.4-14.5c0.5,0.4,1.1,0.8,1.6,1.2l0,0l-10.7,14.3C246,615.3,245.6,615,245.2,614.7L245.2,614.7z M154.9,599.9
					c0.5-0.4,1.1-0.8,1.6-1.1l0,0l10,14.8c-0.4,0.3-0.9,0.6-1.3,0.9l0,0L154.9,599.9L154.9,599.9z M232.8,607.6l7.2-16.3
					c0.6,0.3,1.2,0.5,1.8,0.8l0,0l-7.6,16.2C233.8,608,233.3,607.8,232.8,607.6L232.8,607.6z M232.8,607.6
					C232.8,607.6,232.8,607.6,232.8,607.6L232.8,607.6L232.8,607.6L232.8,607.6L232.8,607.6z M177.6,607.5l-7.1-16.4
					c0.6-0.3,1.2-0.5,1.8-0.8l0,0l6.8,16.5C178.5,607.1,178.1,607.3,177.6,607.5L177.6,607.5L177.6,607.5L177.6,607.5z M219.3,603.2
					l3.7-17.5c0.7,0.1,1.3,0.3,2,0.4l0,0l-4.1,17.4C220.4,603.5,219.9,603.4,219.3,603.2L219.3,603.2z M191.1,603.2l-3.6-17.5
					c0.6-0.1,1.3-0.3,2-0.4l0,0l3.2,17.6C192.1,603,191.6,603.1,191.1,603.2L191.1,603.2L191.1,603.2L191.1,603.2z M205.2,601.8
					L205.2,601.8l0-17.8c0.7,0,1.3,0,2,0l0,0l-0.4,17.8C206.3,601.8,205.8,601.8,205.2,601.8L205.2,601.8z"/>
			</g>
		</g>
		<g>
			<g>
				<g>
					<path fill="#6CCCDE" d="M493.7,577.4c51.4-18.7,108.3,7.8,127,59.2l0,0c18.7,51.4-7.8,108.3-59.2,127l0,0
						c-51.4,18.7-108.3-7.8-127-59.2l0,0C415.8,653,442.3,596.2,493.7,577.4L493.7,577.4z M567.5,585.1
						c-21.9-10.2-47.6-12.1-72.1-3.2l0,0c-24.5,8.9-43,26.9-53.2,48.8l0,0c-10.2,21.9-12.1,47.6-3.2,72.1l0,0
						c8.9,24.5,26.9,43,48.8,53.2l0,0c21.9,10.2,47.6,12.1,72.1,3.2l0,0c24.5-8.9,43-26.9,53.2-48.8l0,0
						c10.2-21.9,12.1-47.6,3.2-72.1l0,0C607.3,613.8,589.4,595.3,567.5,585.1L567.5,585.1z"/>
				</g>
			</g>
			<g>
				<path fill="#6CCCDE" d="M560.2,564.4l2.5-5.1c-22.1-7-46.5-7.5-70.1,0l1.9,5.3C516.6,557.7,539.4,558.1,560.2,564.4z
					 M444.6,596.8l-4-3.9c-24.7,27.8-35.4,66.6-26.5,104.4l5.3-1.9c-5.7-24.7-2.6-49.9,7.6-71.7
					C431.5,613.9,437.5,604.9,444.6,596.8z M484.6,568.2l-1.9-5.3c-13.1,5.5-24.8,13.1-34.7,22.4l4,3.9
					C461.3,580.6,472.2,573.4,484.6,568.2z M591.8,580c14.3,10.1,26.3,23.7,34.6,40l5.3-1.9c-8.9-17.7-21.9-32.3-37.4-43.1
					L591.8,580z M428,719.5l-5.3,1.9c8.6,17.8,21.4,32.6,36.6,43.6l2.5-5.1C447.8,749.7,436.1,736,428,719.5z M614.6,748.2
					c25.1-28.2,35.8-67.8,26.1-106.1l-5.3,1.9c6.2,25.3,3.2,51.1-7.2,73.4c-4.5,9.7-10.5,18.8-17.6,26.9L614.6,748.2z M493.3,776.1
					l-2.5,5.1c22.3,7.5,47.1,8.3,71.1,0.9l-1.9-5.3C537.4,783.6,514.2,782.9,493.3,776.1z M569.8,773.2l1.9,5.3
					c13.5-5.5,25.4-13.2,35.5-22.7l-4-3.9C593.7,760.7,582.5,768,569.8,773.2z"/>
			</g>
		</g>
		<g>
			<g>
				<path fill="#6CCCDE" d="M939.8,586.2l-24.9,32.6c10.3,11.1,17.4,25.3,19.6,41l38.7-14.5C968,622.4,956.2,601.9,939.8,586.2z"/>
				<path fill="#6CCCDE" d="M932,692.3c-2.9,9.9-7.8,18.9-14.2,26.6l31.9,25.3c11.3-13.9,19.5-30.4,23.5-48.5L932,692.3z"/>
				<path fill="#6CCCDE" d="M799.5,623.7c13.9-17.7,35.5-29.1,59.7-29.1c10.7,0,21,2.2,30.2,6.3l11.7-39.2c-13-5-27.2-7.8-41.9-7.8
					c-35.7,0-67.6,16-89,41.3L799.5,623.7z"/>
			</g>
			<g>
				<path fill="#6CCCDE" d="M859.6,787.2c12.7,0,24.9-2.1,36.3-5.9l-7.5-40.6c-6.1,2.5-12.5,4.3-19.2,5.2L859.6,787.2z"/>
				<path fill="#6CCCDE" d="M803.1,772.8l23.5-33.7c-3.5-1.7-6.8-3.6-10-5.8l-24.1,32.8C795.9,768.6,799.4,770.8,803.1,772.8z"/>
				<path fill="#6CCCDE" d="M856.5,746.4c-5.6-0.2-11.1-1-16.3-2.4L821,780.7c6.3,2.2,12.9,3.9,19.7,4.9L856.5,746.4z"/>
				<path fill="#6CCCDE" d="M805.2,723.9c-10.4-10.5-17.7-24-20.5-39.1l-42-13.8c0.1,30.6,12,58.4,31.3,79.1L805.2,723.9z"/>
			</g>
		</g>
		<path fill="#6CCCDE" d="M1314,666.7c-2.1-63.1-53.8-112.8-116.5-112.8c-1.3,0-2.6,0-3.9,0.1c-63,2.1-112.8,53.8-112.8,116.5
			c0,1.3,0,2.6,0.1,3.9l0.1,3.4l52.1-1.7c2.8,32.6,29.8,58.3,63,59l1.7,52.1l3.5-0.1c63.1-2.1,112.8-53.8,112.8-116.5
			C1314,669.3,1314,668,1314,666.7z M1199.1,722.9l-1.7,0.1v-20.5c-17.6,0-31.9-14.3-31.9-31.9c0-17.6,14.3-31.9,31.9-31.9
			s31.9,14.3,31.9,31.9h20.5c0,0,0,0,0,0C1249.8,698.7,1227.5,721.9,1199.1,722.9z M1204.5,780l-1.7-50.5
			c30.4-2.8,53.9-28.3,53.9-59c0,0,0,0,0,0h5.3c0-35.7-28.9-64.6-64.6-64.6c-35.2,0-63.8,28.2-64.5,63.3l-45.2,1.5
			c0-0.1,0-0.2,0-0.2c0-58.9,46.8-107.6,106.1-109.6c1.2,0,2.5-0.1,3.7-0.1c58.9,0,107.6,46.8,109.6,106.1c0,1.2,0.1,2.5,0.1,3.7
			C1307.1,728.4,1262.2,776.3,1204.5,780z"/>
	</g>
</g>
</svg>
